<svg xmlns="http://www.w3.org/2000/svg" version="1.1" xmlns:xlink="http://www.w3.org/1999/xlink" xmlns:svgjs="http://svgjs.dev/svgjs" width="128" height="128" viewBox="0 0 128 128"><g transform="matrix(0.6130952380952381,0,0,0.6130952380952381,24.92395105917582,12.333870967741937)"><svg viewBox="0 0 118 155" data-background-color="#ffffff" preserveAspectRatio="xMidYMid meet" height="168" width="128" xmlns="http://www.w3.org/2000/svg" xmlns:xlink="http://www.w3.org/1999/xlink"><g id="tight-bounds" transform="matrix(1,0,0,1,-0.24365942028985899,0.25)"><svg viewBox="0 0 118.48731884057972 154.5" height="154.5" width="118.48731884057972"><g><svg viewBox="0 0 118.48731884057972 154.5" height="154.5" width="118.48731884057972"><g><svg viewBox="0 0 118.48731884057972 154.5" height="154.5" width="118.48731884057972"><g id="textblocktransform"><svg viewBox="0 0 118.48731884057972 154.5" height="154.5" width="118.48731884057972" id="textblock"><g><svg viewBox="0 0 118.48731884057972 154.5" height="154.5" width="118.48731884057972"><g transform="matrix(1,0,0,1,0,0)"><svg width="118.48731884057972" viewBox="2.27 -40.43 31.01 40.43" height="154.5" data-palette-color="#b100ff"><path d="M11.06-40.43L11.06 0 9.3 0 9.3-40.43 11.06-40.43ZM7.54-40.43L7.54 0 5.79 0 5.79-40.43 7.54-40.43ZM4.03-40.43L4.03 0 2.27 0 2.27-40.43 4.03-40.43ZM14.58-15.82L14.58-8.79 33.28-8.79 33.28-7.03 14.58-7.03 14.58-5.27 33.28-5.27 33.28-3.52 14.58-3.52 14.58-1.76 33.28-1.76 33.28 0 12.82 0 12.82-40.43 33.28-40.43 33.28-38.67 14.58-38.67 14.58-36.91 33.28-36.91 33.28-35.16 14.58-35.16 14.58-33.4 33.28-33.4 33.28-31.64 14.58-31.64 14.58-24.61 24.17-24.61 24.17-22.85 14.58-22.85 14.58-21.09 24.17-21.09 24.17-19.34 14.58-19.34 14.58-17.58 24.17-17.58 24.17-15.82 14.58-15.82Z" opacity="1" transform="matrix(1,0,0,1,0,0)" fill="#b100ff" class="wordmark-text-0" data-fill-palette-color="primary" id="text-0"></path></svg></g></svg></g></svg></g></svg></g></svg></g><defs></defs></svg><rect width="118.48731884057972" height="154.5" fill="none" stroke="none" visibility="hidden"></rect></g></svg></g></svg>