<svg xmlns="http://www.w3.org/2000/svg" version="1.1" xmlns:xlink="http://www.w3.org/1999/xlink" xmlns:svgjs="http://svgjs.dev/svgjs" width="2000" height="550" viewBox="0 0 2000 550"><g transform="matrix(1,0,0,1,-1.2121212121212466,-0.7246723050459991)"><svg viewBox="0 0 396 109" data-background-color="#ffffff" preserveAspectRatio="xMidYMid meet" height="550" width="2000" xmlns="http://www.w3.org/2000/svg" xmlns:xlink="http://www.w3.org/1999/xlink"><g id="tight-bounds" transform="matrix(1,0,0,1,0.2400000000000091,0.14361687500002063)"><svg viewBox="0 0 395.52 108.71276624999999" height="108.71276624999999" width="395.52"><g><svg viewBox="0 0 395.52 108.71276624999999" height="108.71276624999999" width="395.52"><g><svg viewBox="0 0 395.52 108.71276624999999" height="108.71276624999999" width="395.52"><g id="textblocktransform"><svg viewBox="0 0 395.52 108.71276624999999" height="108.71276624999999" width="395.52" id="textblock"><g><svg viewBox="0 0 395.52 108.71276624999999" height="108.71276624999999" width="395.52"><rect width="395.52" height="108.71276624999999" x="0" y="0" opacity="1" fill="#141414" data-fill-palette-color="tertiary"></rect><g transform="matrix(1,0,0,1,23.607599999999998,23.607599999999994)"><svg width="348.3048" viewBox="2.27 -40.43 234.35999999999999 41.38" height="61.49756625" data-palette-color="#b100ff"><path d="M11.06-40.43L11.06 0 9.3 0 9.3-40.43 11.06-40.43ZM7.54-40.43L7.54 0 5.79 0 5.79-40.43 7.54-40.43ZM4.03-40.43L4.03 0 2.27 0 2.27-40.43 4.03-40.43ZM14.58-15.82L14.58-8.79 33.28-8.79 33.28-7.03 14.58-7.03 14.58-5.27 33.28-5.27 33.28-3.52 14.58-3.52 14.58-1.76 33.28-1.76 33.28 0 12.82 0 12.82-40.43 33.28-40.43 33.28-38.67 14.58-38.67 14.58-36.91 33.28-36.91 33.28-35.16 14.58-35.16 14.58-33.4 33.28-33.4 33.28-31.64 14.58-31.64 14.58-24.61 24.17-24.61 24.17-22.85 14.58-22.85 14.58-21.09 24.17-21.09 24.17-19.34 14.58-19.34 14.58-17.58 24.17-17.58 24.17-15.82 14.58-15.82ZM50.12 0L36.2-35.16 38.11-35.16 51.07-2.37 64.04-35.16 65.92-35.16 52.02 0 50.12 0ZM51.29-6.54L39.99-35.16 41.87-35.16 52.29-8.79 51.29-6.54ZM53.24-11.18L43.77-35.16 45.68-35.16 54.17-13.6 53.24-11.18ZM55.1-16.02L47.56-35.16 49.44-35.16 56.03-18.48 55.1-16.02ZM61.47 0L75.36-35.16 77.27-35.16 63.35 0 61.47 0ZM57.69 0L71.6-35.16 73.48-35.16 59.57 0 57.69 0ZM53.9 0L67.8-35.16 69.7-35.16 55.78 0 53.9 0ZM89.16-35.16L89.16 0 87.4 0 87.4-35.16 89.16-35.16ZM85.64-35.16L85.64 0 83.88 0 83.88-35.16 85.64-35.16ZM82.12-35.16L82.12 0 80.37 0 80.37-35.16 82.12-35.16ZM92.67-13.21L92.67-8.79 109.49-8.79 109.49-7.03 92.67-7.03 92.67-5.27 109.49-5.27 109.49-3.52 92.67-3.52 92.67-1.76 109.49-1.76 109.49 0 90.91 0 90.91-35.16 109.49-35.16 109.49-33.4 92.67-33.4 92.67-31.64 109.49-31.64 109.49-29.88 92.67-29.88 92.67-28.13 109.49-28.13 109.49-26.37 92.67-26.37 92.67-22 108.52-22 108.52-20.24 92.67-20.24 92.67-18.48 108.52-18.48 108.52-16.72 92.67-16.72 92.67-14.97 108.52-14.97 108.52-13.21 92.67-13.21ZM141.45-35.16L141.45-14.18 139.69-17.38 139.69-35.16 141.45-35.16ZM144.96-35.16L144.96-8.11 143.21-11.08 143.21-35.16 144.96-35.16ZM120.74 0L120.74-20.97 122.5-17.77 122.5 0 120.74 0ZM117.23 0L117.23-27.29 118.99-24.07 118.99 0 117.23 0ZM138.2 0L117.84-35.16 119.89-35.16 140.25 0 138.2 0ZM142.3 0L121.99-35.16 124.06-35.16 144.4 0 142.3 0ZM146.4 0L126.12-35.16 128.17-35.16 146.72-3.05 146.72-35.16 148.48-35.16 148.48 0 146.4 0ZM134.07 0L115.47-32.13 115.47 0 113.71 0 113.71-35.16 115.81-35.16 136.1 0 134.07 0ZM159.29 0L159.29-25.42 161.05-25.42 161.05 0 159.29 0ZM178.63-33.4L152.26-33.4 152.26-35.16 178.63-35.16 178.63-33.4ZM178.63-29.88L152.26-29.88 152.26-31.64 178.63-31.64 178.63-29.88ZM178.63-26.37L152.26-26.37 152.26-28.13 178.63-28.13 178.63-26.37ZM169.84 0L169.84-25.42 171.6-25.42 171.6 0 169.84 0ZM166.32 0L166.32-25.42 168.08-25.42 168.08 0 166.32 0ZM162.81 0L162.81-25.42 164.57-25.42 164.57 0 162.81 0ZM193.03 0L193.03-35.16 194.79-35.16 194.79 0 193.03 0ZM189.51 0L189.51-35.16 191.27-35.16 191.27 0 189.51 0ZM186 0L186-35.16 187.76-35.16 187.76 0 186 0ZM182.48 0L182.48-35.16 184.24-35.16 184.24 0 182.48 0ZM224.33 0L224.33-17.33Q224.33-20.46 222.4-22.17 220.47-23.88 217.29-23.88L217.29-23.88Q214.61-23.88 212.68-22.02 210.75-20.17 210.75-17.58L210.75-17.58Q210.75-16.11 211.14-14.95 211.53-13.79 212.2-13.02 212.88-12.26 213.8-11.76 214.73-11.25 215.74-11.04 216.76-10.82 217.9-10.82L217.9-10.82Q220.69-10.82 222.98-12.18L222.98-12.18 222.98-10.42Q220.61-9.18 217.88-9.18L217.88-9.18Q216.12-9.18 214.57-9.66 213.02-10.13 211.75-11.1 210.48-12.06 209.74-13.73 208.99-15.41 208.99-17.58L208.99-17.58Q208.99-20.95 211.36-23.29 213.73-25.63 217.29-25.63L217.29-25.63Q221.23-25.63 223.65-23.43 226.08-21.22 226.08-17.33L226.08-17.33 226.08 0 224.33 0ZM229.6-17.33L229.6-17.33 229.6 0 227.84 0 227.84-17.33Q227.84-21.95 224.89-24.67 221.93-27.39 217.29-27.39L217.29-27.39Q213-27.39 210.12-24.54 207.24-21.68 207.24-17.58L207.24-17.58Q207.24-15.09 208.1-13.11 208.97-11.13 210.46-9.94 211.95-8.74 213.79-8.12 215.63-7.5 217.69-7.5L217.69-7.5Q220.47-7.5 222.98-8.79L222.98-8.79 222.98-6.93Q220.35-5.83 217.66-5.83L217.66-5.83Q215.24-5.83 213.07-6.58 210.9-7.32 209.19-8.75 207.48-10.18 206.48-12.46 205.48-14.75 205.48-17.58L205.48-17.58Q205.48-22.39 208.88-25.77 212.29-29.15 217.29-29.15L217.29-29.15Q220.81-29.15 223.59-27.72 226.38-26.29 227.99-23.58 229.6-20.87 229.6-17.33ZM233.11-17.33L233.11-17.33 233.11 0 231.36 0 231.36-17.33Q231.36-21.36 229.51-24.48 227.67-27.59 224.47-29.25 221.27-30.91 217.29-30.91L217.29-30.91Q213.51-30.91 210.39-29.11 207.26-27.32 205.49-24.27 203.72-21.22 203.72-17.58L203.72-17.58Q203.72-14.45 204.87-11.88 206.02-9.3 207.96-7.64 209.9-5.98 212.38-5.07 214.85-4.15 217.56-4.15L217.56-4.15Q220.32-4.15 222.98-5.3L222.98-5.3 222.98-3.52Q220.2-2.47 217.51-2.47L217.51-2.47Q213.29-2.47 209.75-4.37 206.21-6.27 204.09-9.77 201.96-13.26 201.96-17.58L201.96-17.58Q201.96-20.65 203.15-23.44 204.33-26.22 206.36-28.25 208.38-30.27 211.24-31.47 214.1-32.67 217.29-32.67L217.29-32.67Q221.76-32.67 225.36-30.76 228.96-28.86 231.04-25.34 233.11-21.83 233.11-17.33ZM236.63-17.33L236.63-17.33 236.63 0 234.87 0 234.87-17.33Q234.87-22.31 232.55-26.23 230.23-30.15 226.23-32.29 222.23-34.42 217.29-34.42L217.29-34.42Q212.56-34.42 208.63-32.15 204.7-29.88 202.45-26.01 200.2-22.14 200.2-17.58L200.2-17.58Q200.2-14.58 201.17-11.88 202.13-9.18 203.81-7.17 205.48-5.15 207.66-3.69 209.85-2.22 212.38-1.46 214.9-0.71 217.51-0.71L217.51-0.71Q220.4-0.71 222.98-1.81L222.98-1.81 222.98 0Q220.27 0.95 217.42 0.95L217.42 0.95Q214.46 0.95 211.67 0.12 208.87-0.71 206.49-2.33 204.11-3.96 202.3-6.16 200.5-8.37 199.47-11.33 198.45-14.28 198.45-17.58L198.45-17.58Q198.45-21.36 199.88-24.79 201.3-28.22 203.78-30.73 206.26-33.23 209.79-34.7 213.32-36.18 217.29-36.18L217.29-36.18Q221.35-36.18 224.91-34.81 228.48-33.45 231.06-31.02 233.65-28.59 235.14-25.05 236.63-21.51 236.63-17.33Z" opacity="1" transform="matrix(1,0,0,1,0,0)" fill="#b100ff" class="wordmark-text-0" data-fill-palette-color="quaternary" id="text-0"></path></svg></g></svg></g></svg></g></svg></g></svg></g><defs></defs></svg><rect width="395.52" height="108.71276624999999" fill="none" stroke="none" visibility="hidden"></rect></g></svg></g></svg>