<svg id="ic_time" xmlns="http://www.w3.org/2000/svg" width="40" height="40" viewBox="0 0 40 40">
  <g id="Grupo_17841" data-name="Grupo 17841" transform="translate(-1062 -437)">
    <rect id="Rect치ngulo_8494" data-name="Rect치ngulo 8494" width="25" height="25" transform="translate(1069 444)" fill="none" opacity="0.5"/>
    <g id="tiempo-restante" transform="translate(1069 442.313)">
      <g id="Layer_2_16_" transform="translate(0 1.688)">
        <g id="Grupo_17826" data-name="Grupo 17826" transform="translate(0 0)">
          <path id="Trazado_66074" data-name="Trazado 66074" d="M254.128,423.186c-.208.052-.42.1-.631.137a1.014,1.014,0,0,0,.37,1.995c.251-.047.5-.1.751-.163a1.014,1.014,0,0,0-.49-1.969Z" transform="translate(-238.962 -400.294)" fill="#e10165"/>
          <path id="Trazado_66075" data-name="Trazado 66075" d="M412.754,138.208a1.014,1.014,0,0,0,1.926-.638c-.08-.242-.169-.485-.264-.722a1.014,1.014,0,1,0-1.884.753C412.612,137.8,412.687,138,412.754,138.208Z" transform="translate(-390.087 -128.913)" fill="#e10165"/>
          <path id="Trazado_66076" data-name="Trazado 66076" d="M321.924,394.08c-.179.118-.364.232-.55.34a1.014,1.014,0,1,0,1.014,1.757c.221-.128.441-.263.654-.4a1.014,1.014,0,0,0-1.118-1.693Z" transform="translate(-303.462 -372.636)" fill="#e10165"/>
          <path id="Trazado_66077" data-name="Trazado 66077" d="M429.662,208.286a1.014,1.014,0,1,0-2.027.08c.008.214.011.431.006.645a1.014,1.014,0,1,0,2.028.045C429.675,208.8,429.672,208.541,429.662,208.286Z" transform="translate(-404.438 -196.158)" fill="#e10165"/>
          <path id="Trazado_66078" data-name="Trazado 66078" d="M378.822,344.272a1.014,1.014,0,0,0-1.42.2c-.129.172-.264.341-.4.5a1.015,1.015,0,0,0,.115,1.43c.024.021.049.04.074.057a1.014,1.014,0,0,0,1.356-.172c.166-.195.327-.4.481-.6A1.015,1.015,0,0,0,378.822,344.272Z" transform="translate(-356.32 -325.497)" fill="#e10165"/>
          <path id="Trazado_66079" data-name="Trazado 66079" d="M415.3,279.4a1.014,1.014,0,0,0-1.271.665c-.064.2-.135.409-.212.61a1.014,1.014,0,0,0,1.9.722c.091-.239.176-.483.252-.726A1.015,1.015,0,0,0,415.3,279.4Z" transform="translate(-391.309 -264.29)" fill="#e10165"/>
          <path id="Trazado_66080" data-name="Trazado 66080" d="M10.74,24.725a10.474,10.474,0,0,1-2.6-.827l-.029-.016c-.194-.092-.388-.19-.577-.292l0,0a10.821,10.821,0,0,1-1.009-.631A10.585,10.585,0,0,1,6.565,5.62L6.6,5.595a10.6,10.6,0,0,1,11.884-.1l-.793,1.145c-.22.319-.085.551.3.516l3.443-.308a.567.567,0,0,0,.513-.742L21.025,2.78c-.1-.373-.368-.418-.589-.1l-.794,1.148a12.527,12.527,0,0,0-9.18-1.952q-.487.084-.961.205H9.5l-.036.01A12.508,12.508,0,0,0,2.523,6.741c-.015.017-.03.034-.043.053-.058.078-.115.157-.171.236-.091.13-.182.263-.268.4-.011.016-.019.032-.028.049a12.506,12.506,0,0,0-2,7.377c0,.009,0,.017,0,.026.011.254.032.512.059.766,0,.016.005.032.008.048.028.255.064.511.108.767a12.519,12.519,0,0,0,3.53,6.789l.013.013,0,0a12.782,12.782,0,0,0,1.616,1.351,12.507,12.507,0,0,0,5.03,2.105,1.014,1.014,0,0,0,.358-2Z" transform="translate(0 -1.688)" fill="#e10165"/>
          <path id="Trazado_66081" data-name="Trazado 66081" d="M206.808,83.2a.821.821,0,0,0-.821.821V92.2l7.478,3.866a.821.821,0,0,0,.754-1.458L207.628,91.2V84.019A.821.821,0,0,0,206.808,83.2Z" transform="translate(-194.814 -78.777)" fill="#e10165"/>
        </g>
      </g>
    </g>
  </g>
  <rect id="Rect치ngulo_8499" data-name="Rect치ngulo 8499" width="40" height="40" fill="none"/>
</svg>
